<?xml version="1.0" encoding="UTF-8"?><svg id="_Слой_1" xmlns="http://www.w3.org/2000/svg" xmlns:xlink="http://www.w3.org/1999/xlink" viewBox="0 0 728.6 146.4"><defs><style>.cls-1{fill:none;}.cls-2{clip-path:url(#clippath);}.cls-3{fill:#ef3124;}</style><clipPath id="clippath"><rect class="cls-1" width="728.6" height="146.4"/></clipPath></defs><polygon class="cls-3" points="703.61 28.92 678.75 56.78 678.75 28.92 660.76 28.92 660.76 99.25 678.75 99.25 678.75 69.64 705.36 99.25 728.6 99.25 695.87 62.4 726.23 28.92 703.61 28.92"/><polygon class="cls-3" points="629.04 55.15 604.18 55.15 604.18 28.92 586.18 28.92 586.18 99.25 604.18 99.25 604.18 71.52 629.04 71.52 629.04 99.25 647.03 99.25 647.03 28.92 629.04 28.92 629.04 55.15"/><g class="cls-2"><path class="cls-3" d="M106.82,67.02c-.43,13.12-2.12,15.74-9.5,15.74v16.49h2.75c18.39,0,22.81-9.5,23.49-30.61l.75-23.36h17.24v53.97h17.99V28.92h-51.47l-1.25,38.1Z"/><path class="cls-3" d="M204.26,50.28h-12.99V28.92h-17.99V99.25h31.23c19.62,0,26.61-12.74,26.61-24.74,0-15.49-9.75-24.24-26.86-24.24m-1.37,33.48h-11.62v-17.87h11.62c6.25,0,9.99,2.75,9.99,8.62,0,6.37-3.62,9.25-9.99,9.25"/><path class="cls-3" d="M289.71,27.29V1.18h-17.99V27.29c-20.61,1.75-34.48,16.37-34.48,36.73s13.87,35.11,34.48,36.86v26.49h17.99v-26.49c20.61-1.62,34.48-16.37,34.48-36.86s-13.87-35.11-34.48-36.73m-17.99,56.6c-9.99-1.38-16.24-8.87-16.24-19.86s6.25-18.49,16.24-19.86v39.73Zm17.99,0V44.16c9.99,1.37,16.24,8.87,16.24,19.86s-6.25,18.49-16.24,19.86"/><path class="cls-3" d="M391.66,77.64v-23.61c0-17.24-10.99-28.11-29.48-28.11s-29.23,11.5-30.11,23.49h18.24c.62-2.62,3.37-7.12,11.87-7.12,7,0,11.49,3.25,11.49,11.74h-17.87c-15.99,0-25.49,8.37-25.49,22.36s10.39,24.61,25.36,24.61c10.98,0,17.08-5.19,19.74-9.12,2.37,4.75,7.62,7.37,14.49,7.37h6.25v-16.24c-3.25,0-4.5-1.5-4.5-5.37m-17.99-4.62c0,8.12-5.75,12.74-13.24,12.74-6.5,0-11.62-2.37-11.62-9.37s5.62-7.99,10.49-7.99h14.37v4.62Z"/><path class="cls-3" d="M468.75,38.91h-20.11V19.05h46.6V1.18h-65.46V99.25h38.98c21.61,0,33.98-10.74,33.98-30.48,0-18.61-12.37-29.86-33.98-29.86m-.87,42.6h-19.24v-25.49h19.24c9.99,0,15.62,4.62,15.62,12.74s-5.62,12.74-15.62,12.74"/><path class="cls-3" d="M571.57,77.64v-23.61c0-17.24-10.99-28.11-29.48-28.11s-29.23,11.5-30.11,23.49h18.24c.62-2.62,3.37-7.12,11.87-7.12,7,0,11.49,3.25,11.49,11.74h-17.87c-15.99,0-25.49,8.37-25.49,22.36s10.39,24.61,25.36,24.61c10.98,0,17.08-5.19,19.74-9.12,2.37,4.75,7.62,7.37,14.49,7.37h6.25v-16.24c-3.25,0-4.5-1.5-4.5-5.37m-17.99-4.62c0,8.12-5.75,12.74-13.24,12.74-6.5,0-11.62-2.37-11.62-9.37s5.62-7.99,10.49-7.99h14.37v4.62Z"/><rect class="cls-3" y="126.41" width="96.2" height="19.99"/><path class="cls-3" d="M65.59,14.64C62.84,6.46,59.68,0,48.85,0s-14.2,6.43-17.08,14.64L2,99.25H21.74l6.87-20.11h37.98l6.37,20.11h20.99L65.59,14.64Zm-31.23,47.51l13.49-40.1h.5l12.74,40.1h-26.74Z"/></g></svg>