<svg width="25" height="24" viewBox="0 0 25 24" fill="none" xmlns="http://www.w3.org/2000/svg">
<path d="M12.4999 3C8.63988 3 5.49988 5.964 5.49988 9.609C5.49198 10.9623 5.92712 12.2811 6.73888 13.364L12.5549 20C14.0799 18.266 17.1199 14.791 18.2679 13.357C19.0739 12.35 19.4999 11.053 19.4999 9.61C19.4999 5.964 16.3599 3 12.4999 3ZM12.5499 23C12.2249 22.962 11.8969 22.854 11.6829 22.6L5.16988 14.9C4.08037 13.4232 3.49486 11.6352 3.49988 9.8C3.49988 4.948 7.53788 1 12.4999 1C17.4619 1 21.4999 4.948 21.4999 9.8C21.4999 11.725 20.9319 13.477 19.8579 14.869C18.3299 16.848 13.6139 22.371 13.4139 22.605C13.2009 22.855 12.8829 23 12.5499 23ZM12.4999 7C10.8449 7 9.49988 8.345 9.49988 10C9.49988 11.655 10.8449 13 12.4999 13C14.1549 13 15.4999 11.655 15.4999 10C15.4999 8.345 14.1549 7 12.4999 7ZM12.4999 15C9.74388 15 7.49988 12.758 7.49988 10C7.49988 7.244 9.74388 5 12.4999 5C15.2579 5 17.4999 7.244 17.4999 10C17.4999 12.758 15.2579 15 12.4999 15Z" fill="#162136"/>
</svg>
