<svg width="154" height="32" viewBox="0 0 154 32" fill="none" xmlns="http://www.w3.org/2000/svg">
<path d="M22.7541 17.102H21.9672C21.5738 14.898 20.1967 13 18.2295 11.6531C18.1639 11.5918 18.0328 11.5306 17.9016 11.4694C16.6557 12.6327 15.2131 13.1837 13.6393 13.1224C11.541 13 9.70492 11.8367 9.04918 10.0612L6.62295 8.34694C6.29508 8.16327 6.03279 8.28571 6.03279 8.59184L5.63934 11.898C4.39344 12.8163 3.34426 13.9796 2.7541 15.3265H1.18033C0.52459 15.3265 0 15.8163 0 16.4286V19.7347C0 20.3469 0.52459 20.8367 1.18033 20.8367H2.55738C3.21311 22.7347 4.65574 24.3878 6.55738 25.4286V27.5102C6.55738 27.7551 6.81967 28 7.08197 28H9.63934C9.90164 28 10.1639 27.7551 10.1639 27.5102V26.6531C10.8197 26.7755 11.4754 26.8367 12.1311 26.8367C12.7869 26.8367 13.4426 26.7755 14.0984 26.6531V27.5102C14.0984 27.7551 14.3607 28 14.623 28H17.1803C17.4426 28 17.7049 27.7551 17.7049 27.5102V25.4286C20.1311 24.0816 21.7705 21.8776 22.0984 19.3061H22.8197C23.4754 19.3061 24 18.8163 24 18.2041C24 17.5918 23.4098 17.102 22.7541 17.102ZM5.2459 15.0816C5.44262 15.3265 5.77049 15.5102 6.09836 15.5102C6.68853 15.5102 7.14754 15.0816 7.14754 14.5306C7.14754 13.9796 6.68853 13.551 6.09836 13.551H5.96721C6.16393 13.4286 6.42623 13.3673 6.68852 13.3673C7.54098 13.3673 8.19672 13.9796 8.19672 14.7755C8.19672 15.5714 7.54098 16.1837 6.68852 16.1837C6.03279 16.1837 5.44262 15.6939 5.2459 15.0816ZM13.9672 4C16.3279 4 18.2951 5.83673 18.2951 8.04082C18.2951 10.2449 16.3279 12.0816 13.9672 12.0816C11.6066 12.0816 9.63934 10.2449 9.63934 8.04082C9.63934 5.83673 11.6066 4 13.9672 4ZM14.2951 10.0612C15.2787 9.93878 15.7377 9.44898 15.7377 8.77551C15.7377 8.16327 15.4098 7.79592 14.4262 7.4898C13.7705 7.30612 13.5082 7.18367 13.5082 7C13.5082 6.87755 13.6393 6.69388 14.0984 6.69388C14.3607 6.69388 14.5574 6.69388 14.8197 6.7551C15.082 6.87755 15.3443 6.7551 15.4098 6.5102C15.4754 6.26531 15.2787 6.02041 15.0164 5.95918C14.7541 5.89796 14.5574 5.89796 14.3607 5.89796V5.71429C14.3607 5.46939 14.1639 5.28571 13.9016 5.28571C13.6393 5.28571 13.4426 5.46939 13.4426 5.71429V5.89796C12.5246 6.08163 12.0656 6.5102 12.0656 7.12245C12.0656 7.79592 12.6557 8.16327 13.5082 8.40816C14.0984 8.59184 14.2951 8.71429 14.2951 8.89796C14.2951 9.14286 14.0328 9.20408 13.6393 9.20408C13.377 9.20408 13.1148 9.14286 12.7213 9.08163C12.459 9.02041 12.1967 9.14286 12.1311 9.38776C12.0656 9.63265 12.2623 9.93878 12.5246 10C12.8525 10.0612 13.1148 10.1224 13.377 10.1224V10.3061C13.377 10.551 13.5738 10.7347 13.8361 10.7347C14.0984 10.7347 14.2951 10.551 14.2951 10.3061V10.0612Z" fill="black"/>
<path d="M38.3984 11.8926L35.2783 22H31.9648L36.667 9.20312H38.7676L38.3984 11.8926ZM40.9824 22L37.8535 11.8926L37.4492 9.20312H39.5762L44.3047 22H40.9824ZM40.8594 17.2275V19.6094H34.2939V17.2275H40.8594ZM53.7002 19.627V22H47.2314V19.627H53.7002ZM48.3301 9.20312V22H45.2451V9.20312H48.3301ZM63.4561 19.627V22H56.9873V19.627H63.4561ZM58.0859 9.20312V22H55.001V9.20312H58.0859ZM73.3965 22H70.5576L70.5752 19.627H73.3965C73.9824 19.627 74.4775 19.4863 74.8818 19.2051C75.292 18.9238 75.6025 18.5049 75.8135 17.9482C76.0303 17.3857 76.1387 16.6943 76.1387 15.874V15.3203C76.1387 14.7051 76.0771 14.166 75.9541 13.7031C75.8369 13.2344 75.6611 12.8447 75.4268 12.5342C75.1924 12.2178 74.8994 11.9805 74.5479 11.8223C74.2021 11.6641 73.8037 11.585 73.3525 11.585H70.5049V9.20312H73.3525C74.2197 9.20312 75.0137 9.35254 75.7344 9.65137C76.4609 9.94434 77.0879 10.3662 77.6152 10.917C78.1484 11.4619 78.5586 12.1094 78.8457 12.8594C79.1387 13.6035 79.2852 14.4297 79.2852 15.3379V15.874C79.2852 16.7764 79.1387 17.6025 78.8457 18.3525C78.5586 19.1025 78.1514 19.75 77.624 20.2949C77.0967 20.8398 76.4727 21.2617 75.752 21.5605C75.0371 21.8535 74.252 22 73.3965 22ZM72.3242 9.20312V22H69.2393V9.20312H72.3242ZM89.7002 19.627V22H82.8799V19.627H89.7002ZM83.9785 9.20312V22H80.8936V9.20312H83.9785ZM88.8213 14.2832V16.5771H82.8799V14.2832H88.8213ZM89.7266 9.20312V11.585H82.8799V9.20312H89.7266ZM96.0723 17.6582H92.8906V15.2764H96.0723C96.5059 15.2764 96.8574 15.2031 97.127 15.0566C97.3965 14.9102 97.5928 14.708 97.7158 14.4502C97.8447 14.1865 97.9092 13.8906 97.9092 13.5625C97.9092 13.2109 97.8447 12.8857 97.7158 12.5869C97.5928 12.2881 97.3965 12.0479 97.127 11.8662C96.8574 11.6787 96.5059 11.585 96.0723 11.585H94.0508V22H90.9658V9.20312H96.0723C97.0977 9.20312 97.9795 9.39062 98.7178 9.76562C99.4619 10.1406 100.033 10.6562 100.432 11.3125C100.83 11.9629 101.029 12.707 101.029 13.5449C101.029 14.3711 100.83 15.0918 100.432 15.707C100.033 16.3223 99.4619 16.8027 98.7178 17.1484C97.9795 17.4883 97.0977 17.6582 96.0723 17.6582ZM113.519 15.3467V15.8652C113.519 16.8438 113.381 17.7227 113.105 18.502C112.836 19.2754 112.452 19.9375 111.954 20.4883C111.456 21.0332 110.867 21.4521 110.188 21.7451C109.508 22.0322 108.758 22.1758 107.938 22.1758C107.111 22.1758 106.355 22.0322 105.67 21.7451C104.99 21.4521 104.398 21.0332 103.895 20.4883C103.396 19.9375 103.01 19.2754 102.734 18.502C102.465 17.7227 102.33 16.8438 102.33 15.8652V15.3467C102.33 14.3682 102.465 13.4893 102.734 12.71C103.01 11.9307 103.394 11.2686 103.886 10.7236C104.384 10.1729 104.973 9.75391 105.652 9.4668C106.338 9.17383 107.094 9.02734 107.92 9.02734C108.74 9.02734 109.49 9.17383 110.17 9.4668C110.855 9.75391 111.447 10.1729 111.945 10.7236C112.443 11.2686 112.83 11.9307 113.105 12.71C113.381 13.4893 113.519 14.3682 113.519 15.3467ZM110.39 15.8652V15.3291C110.39 14.6963 110.334 14.1396 110.223 13.6592C110.117 13.1729 109.959 12.7656 109.748 12.4375C109.537 12.1094 109.276 11.8633 108.966 11.6992C108.661 11.5293 108.312 11.4443 107.92 11.4443C107.51 11.4443 107.152 11.5293 106.848 11.6992C106.543 11.8633 106.288 12.1094 106.083 12.4375C105.878 12.7656 105.723 13.1729 105.617 13.6592C105.518 14.1396 105.468 14.6963 105.468 15.3291V15.8652C105.468 16.4922 105.518 17.0488 105.617 17.5352C105.723 18.0156 105.878 18.4229 106.083 18.7568C106.294 19.0908 106.552 19.3428 106.856 19.5127C107.167 19.6826 107.527 19.7676 107.938 19.7676C108.33 19.7676 108.679 19.6826 108.983 19.5127C109.288 19.3428 109.543 19.0908 109.748 18.7568C109.959 18.4229 110.117 18.0156 110.223 17.5352C110.334 17.0488 110.39 16.4922 110.39 15.8652ZM121.71 18.5986C121.71 18.3994 121.681 18.2207 121.622 18.0625C121.563 17.8984 121.455 17.7461 121.297 17.6055C121.139 17.4648 120.91 17.3242 120.611 17.1836C120.318 17.0371 119.932 16.8848 119.451 16.7266C118.889 16.5391 118.347 16.3281 117.825 16.0938C117.304 15.8535 116.838 15.5752 116.428 15.2588C116.018 14.9365 115.692 14.5615 115.452 14.1338C115.212 13.7002 115.092 13.1963 115.092 12.6221C115.092 12.0713 115.215 11.5762 115.461 11.1367C115.707 10.6914 116.05 10.3135 116.489 10.0029C116.935 9.68652 117.456 9.44629 118.054 9.28223C118.651 9.1123 119.305 9.02734 120.014 9.02734C120.951 9.02734 121.777 9.19141 122.492 9.51953C123.213 9.8418 123.775 10.3018 124.18 10.8994C124.59 11.4912 124.795 12.1914 124.795 13H121.728C121.728 12.6777 121.66 12.3936 121.525 12.1475C121.396 11.9014 121.2 11.708 120.937 11.5674C120.673 11.4268 120.342 11.3564 119.943 11.3564C119.557 11.3564 119.231 11.415 118.968 11.5322C118.704 11.6494 118.505 11.8076 118.37 12.0068C118.235 12.2002 118.168 12.4141 118.168 12.6484C118.168 12.8418 118.221 13.0176 118.326 13.1758C118.438 13.3281 118.593 13.4717 118.792 13.6064C118.997 13.7412 119.243 13.8701 119.53 13.9932C119.823 14.1162 120.151 14.2363 120.515 14.3535C121.194 14.5703 121.798 14.8135 122.325 15.083C122.858 15.3467 123.307 15.6484 123.67 15.9883C124.039 16.3223 124.317 16.7031 124.505 17.1309C124.698 17.5586 124.795 18.042 124.795 18.5811C124.795 19.1553 124.684 19.665 124.461 20.1104C124.238 20.5557 123.919 20.9336 123.503 21.2441C123.087 21.5488 122.589 21.7803 122.009 21.9385C121.429 22.0967 120.781 22.1758 120.066 22.1758C119.41 22.1758 118.763 22.0938 118.124 21.9297C117.491 21.7598 116.917 21.502 116.401 21.1562C115.886 20.8047 115.473 20.3564 115.162 19.8115C114.857 19.2607 114.705 18.6074 114.705 17.8516H117.799C117.799 18.2266 117.849 18.543 117.948 18.8008C118.048 19.0586 118.194 19.2666 118.388 19.4248C118.581 19.5771 118.818 19.6885 119.1 19.7588C119.381 19.8232 119.703 19.8555 120.066 19.8555C120.459 19.8555 120.775 19.7998 121.016 19.6885C121.256 19.5713 121.432 19.4189 121.543 19.2314C121.654 19.0381 121.71 18.8271 121.71 18.5986ZM129.664 9.20312V22H126.588V9.20312H129.664ZM137.768 9.20312V22H134.683V9.20312H137.768ZM141.617 9.20312V11.585H130.921V9.20312H141.617ZM149.378 18.5986C149.378 18.3994 149.349 18.2207 149.29 18.0625C149.231 17.8984 149.123 17.7461 148.965 17.6055C148.807 17.4648 148.578 17.3242 148.279 17.1836C147.986 17.0371 147.6 16.8848 147.119 16.7266C146.557 16.5391 146.015 16.3281 145.493 16.0938C144.972 15.8535 144.506 15.5752 144.096 15.2588C143.686 14.9365 143.36 14.5615 143.12 14.1338C142.88 13.7002 142.76 13.1963 142.76 12.6221C142.76 12.0713 142.883 11.5762 143.129 11.1367C143.375 10.6914 143.718 10.3135 144.157 10.0029C144.603 9.68652 145.124 9.44629 145.722 9.28223C146.319 9.1123 146.973 9.02734 147.682 9.02734C148.619 9.02734 149.445 9.19141 150.16 9.51953C150.881 9.8418 151.443 10.3018 151.848 10.8994C152.258 11.4912 152.463 12.1914 152.463 13H149.396C149.396 12.6777 149.328 12.3936 149.193 12.1475C149.064 11.9014 148.868 11.708 148.604 11.5674C148.341 11.4268 148.01 11.3564 147.611 11.3564C147.225 11.3564 146.899 11.415 146.636 11.5322C146.372 11.6494 146.173 11.8076 146.038 12.0068C145.903 12.2002 145.836 12.4141 145.836 12.6484C145.836 12.8418 145.889 13.0176 145.994 13.1758C146.105 13.3281 146.261 13.4717 146.46 13.6064C146.665 13.7412 146.911 13.8701 147.198 13.9932C147.491 14.1162 147.819 14.2363 148.183 14.3535C148.862 14.5703 149.466 14.8135 149.993 15.083C150.526 15.3467 150.975 15.6484 151.338 15.9883C151.707 16.3223 151.985 16.7031 152.173 17.1309C152.366 17.5586 152.463 18.042 152.463 18.5811C152.463 19.1553 152.352 19.665 152.129 20.1104C151.906 20.5557 151.587 20.9336 151.171 21.2441C150.755 21.5488 150.257 21.7803 149.677 21.9385C149.097 22.0967 148.449 22.1758 147.734 22.1758C147.078 22.1758 146.431 22.0938 145.792 21.9297C145.159 21.7598 144.585 21.502 144.069 21.1562C143.554 20.8047 143.141 20.3564 142.83 19.8115C142.525 19.2607 142.373 18.6074 142.373 17.8516H145.467C145.467 18.2266 145.517 18.543 145.616 18.8008C145.716 19.0586 145.862 19.2666 146.056 19.4248C146.249 19.5771 146.486 19.6885 146.768 19.7588C147.049 19.8232 147.371 19.8555 147.734 19.8555C148.127 19.8555 148.443 19.7998 148.684 19.6885C148.924 19.5713 149.1 19.4189 149.211 19.2314C149.322 19.0381 149.378 18.8271 149.378 18.5986Z" fill="#162136"/>
</svg>
