<svg width="25" height="24" viewBox="0 0 25 24" fill="none" xmlns="http://www.w3.org/2000/svg">
<g clip-path="url(#clip0_20_1076)">
<path d="M23.766 4.25994C22.9067 4.64528 21.994 4.89847 21.059 5.01094C22.0462 4.40938 22.782 3.4704 23.13 2.36794C22.205 2.92314 21.1917 3.3155 20.134 3.52794C19.6963 3.05193 19.1646 2.67195 18.5724 2.41203C17.9803 2.15211 17.3407 2.01792 16.694 2.01794C14.09 2.01794 11.977 4.15894 11.977 6.79694C11.977 7.17194 12.02 7.53694 12.099 7.88694C8.179 7.68594 4.704 5.78394 2.378 2.89094C1.95925 3.62326 1.73931 4.45236 1.74 5.29594C1.74 6.95494 2.605 8.41494 3.872 9.27294C3.097 9.24794 2.766 9.03194 1.766 8.67494V8.73695C1.766 11.0509 3.359 12.9819 5.516 13.4209C5.10596 13.5324 4.68292 13.5889 4.258 13.5889C3.9572 13.5894 3.65709 13.5602 3.362 13.5019C3.963 15.4019 5.701 16.7839 7.763 16.8209C6.09897 18.1476 4.03315 18.8688 1.905 18.8659C1.52911 18.8662 1.15351 18.8452 0.779999 18.8029C2.93003 20.2045 5.44147 20.9502 8.008 20.9489C16.684 20.9489 21.426 13.6679 21.426 7.35294C21.426 7.14494 21.422 6.93994 21.412 6.73494C22.3361 6.05475 23.1329 5.21692 23.766 4.25994Z" fill="#687082"/>
</g>
<defs>
<clipPath id="clip0_20_1076">
<rect width="24" height="24" fill="white" transform="translate(0.765991)"/>
</clipPath>
</defs>
</svg>
