<svg width="25" height="24" viewBox="0 0 25 24" fill="none" xmlns="http://www.w3.org/2000/svg">
<g clip-path="url(#clip0_20_1074)">
<path fill-rule="evenodd" clip-rule="evenodd" d="M15.08 14.314C13.196 16.26 13.057 18.686 12.896 24C17.85 24 21.27 23.983 23.036 22.269C24.749 20.503 24.766 16.92 24.766 12.129C19.452 12.3 17.026 12.429 15.08 14.314ZM0.765991 12.13C0.765991 16.921 0.782991 20.504 2.49699 22.27C4.26299 23.983 7.68299 24 12.637 24C12.466 18.686 12.337 16.26 10.452 14.314C8.50599 12.43 6.07999 12.291 0.765991 12.13ZM12.637 0C7.69199 0 4.26299 0.017 2.49699 1.731C0.782991 3.497 0.765991 7.08 0.765991 11.871C6.07999 11.7 8.50599 11.571 10.452 9.686C12.336 7.74 12.475 5.314 12.636 0H12.637ZM15.08 9.686C13.196 7.74 13.057 5.314 12.896 0C17.85 0 21.27 0.017 23.036 1.731C24.749 3.497 24.766 7.08 24.766 11.871C19.452 11.7 17.026 11.571 15.08 9.686Z" fill="#687082"/>
</g>
<defs>
<clipPath id="clip0_20_1074">
<rect width="24" height="24" fill="white" transform="translate(0.765991)"/>
</clipPath>
</defs>
</svg>
