<svg width="126" height="24" viewBox="0 0 126 24" fill="none" xmlns="http://www.w3.org/2000/svg">
<g clip-path="url(#clip0_227_5316)">
<mask id="mask0_227_5316" style="mask-type:luminance" maskUnits="userSpaceOnUse" x="0" y="0" width="126" height="24">
<path d="M126 0H0V24H126V0Z" fill="white"/>
</mask>
<g mask="url(#mask0_227_5316)">
<path d="M20.1878 0H18.9903C17.4039 0 16.1175 1.2882 16.1175 2.87688V4.07605C16.1175 5.66474 17.4039 6.95293 18.9903 6.95293H20.1878C21.7743 6.95293 23.0607 5.66474 23.0607 4.07605V2.87688C23.0607 1.2882 21.7743 0 20.1878 0Z" fill="#96DCFF"/>
<path d="M12.1305 8.06885H10.933C9.34652 8.06885 8.06012 9.35705 8.06012 10.9457V12.1449C8.06012 13.7336 9.34652 15.0218 10.933 15.0218H12.1305C13.7169 15.0218 15.0033 13.7336 15.0033 12.1449V10.9457C15.0033 9.35705 13.7169 8.06885 12.1305 8.06885Z" fill="#96DCFF"/>
<path d="M20.1878 8.06885H18.9903C17.4039 8.06885 16.1175 9.35705 16.1175 10.9457V12.1449C16.1175 13.7336 17.4039 15.0218 18.9903 15.0218H20.1878C21.7743 15.0218 23.0607 13.7336 23.0607 12.1449V10.9457C23.0607 9.35705 21.7743 8.06885 20.1878 8.06885Z" fill="#50C3FF"/>
<path d="M4.07302 16.1372H2.87554C1.28908 16.1372 0.00268555 17.4254 0.00268555 19.0141V20.2133C0.00268555 21.8019 1.28908 23.0901 2.87554 23.0901H4.07302C5.65948 23.0901 6.94588 21.8019 6.94588 20.2133V19.0141C6.94588 17.4254 5.65948 16.1372 4.07302 16.1372Z" fill="#96DCFF"/>
<path d="M12.1305 16.1372H10.933C9.34652 16.1372 8.06012 17.4254 8.06012 19.0141V20.2133C8.06012 21.8019 9.34652 23.0901 10.933 23.0901H12.1305C13.7169 23.0901 15.0033 21.8019 15.0033 20.2133V19.0141C15.0033 17.4254 13.7169 16.1372 12.1305 16.1372Z" fill="#50C3FF"/>
<path d="M20.1878 16.1372H18.9903C17.4039 16.1372 16.1175 17.4254 16.1175 19.0141V20.2133C16.1175 21.8019 17.4039 23.0901 18.9903 23.0901H20.1878C21.7743 23.0901 23.0607 21.8019 23.0607 20.2133V19.0141C23.0607 17.4254 21.7743 16.1372 20.1878 16.1372Z" fill="#009BFF"/>
<path d="M54.0591 16.0536V12.9569C54.0591 9.74895 51.9753 8.34668 49.1164 8.34668C46.2574 8.34668 44.0847 10.1273 43.7735 12.6008H46.3019C46.5908 11.5992 47.2771 11.0205 48.7635 11.0205H49.4053C51.1113 11.0205 51.6669 11.6214 51.6669 12.3782C51.6669 12.9569 51.3141 13.1127 50.4028 13.1127H48.1634C45.3044 13.1127 43.6624 14.5846 43.6624 16.5405C43.6624 18.4965 45.5017 20.0796 47.83 20.0796C50.1583 20.0796 51.1974 19.1225 51.7114 17.787H51.7781C51.9114 19.1447 52.6227 19.7707 53.9285 19.7707H55.5233V17.097H54.8815C54.3064 17.097 54.0591 16.7631 54.0591 16.0508V16.0536ZM51.6447 15.4777C51.6447 16.6129 50.3138 17.4169 48.5635 17.4169H47.6744C46.6769 17.4169 46.0574 17.0163 46.0574 16.2372C46.0574 15.4582 46.6769 15.2134 47.6744 15.2134H50.3138C51.114 15.2134 51.378 15.0798 51.6447 14.9212V15.4777Z" fill="black"/>
<path d="M123.008 8.63901L119.726 15.7644L116.445 8.63901H113.43L118.306 18.7498L117.731 19.7292C117.042 20.8866 116.401 21.0647 115.47 21.0647H114.339V24.0028H115.492C117.242 24.0028 118.926 23.2905 120.212 20.6613L126 8.63623H123.008V8.63901Z" fill="black"/>
<path d="M36.8553 8.77002C34.6826 8.77002 33.4212 10.0387 32.8849 11.2407H32.796C33.1044 8.12175 34.2602 7.16742 36.6774 7.07561L38.8251 6.98657C40.0226 6.94206 40.7756 6.78625 41.4646 6.47463V3.58105C40.7783 3.84815 40.0226 3.9817 38.8029 4.04848L36.6747 4.15977C32.0209 4.40461 30.5122 7.87969 30.5122 13.1549C30.5122 18.4301 33.4378 20.0828 36.5191 20.0828C39.7781 20.0828 42.0842 17.5648 42.0842 14.4041C42.0842 11.2435 40.0671 8.77002 36.8525 8.77002H36.8553ZM36.8108 17.1447H36.0106C33.9046 17.1447 33.1517 15.9205 33.1517 14.4264C33.1517 12.9323 33.9074 11.7081 36.0106 11.7081H36.8108C38.9168 11.7081 39.6698 12.9546 39.6698 14.4264C39.6698 15.8982 38.914 17.1447 36.8108 17.1447Z" fill="black"/>
<path d="M98.5105 15.7642H97.7798C96.8046 15.7642 96.0516 16.5209 96.0516 17.5448V18.1903C96.0516 19.2142 96.8074 19.971 97.7798 19.971H98.5105C99.4857 19.971 100.239 19.2142 100.239 18.1903V17.5448C100.239 16.5209 99.483 15.7642 98.5105 15.7642Z" fill="black"/>
<path d="M85.6744 15.7646V8.63916H83.1905V19.7739H85.6744L91.748 12.6457V19.7739H94.2319V8.63916H91.748L85.6744 15.7646Z" fill="black"/>
<path d="M108.463 8.34702C106.357 8.34702 105.226 9.41542 104.648 10.6619H104.537V8.6336H102.053V24.0002H104.537V17.8541H104.648C105.223 19.056 106.354 20.0799 108.463 20.0799C111.455 20.0799 113.564 17.4507 113.564 14.201C113.564 10.9512 111.458 8.34424 108.463 8.34424V8.34702ZM108.132 17.1251H107.399C105.293 17.1251 104.54 15.8119 104.54 14.2316C104.54 12.6512 105.295 11.3157 107.399 11.3157H108.132C110.238 11.3157 110.991 12.6512 110.991 14.2316C110.991 15.8119 110.235 17.1251 108.132 17.1251Z" fill="black"/>
<path d="M65.5866 12.7569H59.802V8.63916H57.3181V19.7739H59.802V15.517H65.5866V19.7739H68.0705V8.63916H65.5866V12.7569Z" fill="black"/>
<path d="M78.9367 8.63916L75.9639 12.7569H73.1716V8.63916H70.6877V19.7739H73.1716V15.517H75.9889L78.9367 19.7739H81.9291L78.0254 14.1147L81.9291 8.63916H78.9367Z" fill="black"/>
</g>
</g>
<defs>
<clipPath id="clip0_227_5316">
<rect width="126" height="24" fill="white"/>
</clipPath>
</defs>
</svg>
