<svg width="25" height="24" viewBox="0 0 25 24" fill="none" xmlns="http://www.w3.org/2000/svg">
<path fill-rule="evenodd" clip-rule="evenodd" d="M8.50001 3C8.50001 2.73478 8.60536 2.48043 8.7929 2.29289C8.98044 2.10536 9.23479 2 9.50001 2H17.5C18.2957 2 19.0587 2.31607 19.6213 2.87868C20.1839 3.44129 20.5 4.20435 20.5 5V19C20.5 19.7956 20.1839 20.5587 19.6213 21.1213C19.0587 21.6839 18.2957 22 17.5 22H9.50001C9.23479 22 8.98044 21.8946 8.7929 21.7071C8.60536 21.5196 8.50001 21.2652 8.50001 21C8.50001 20.7348 8.60536 20.4804 8.7929 20.2929C8.98044 20.1054 9.23479 20 9.50001 20H17.5C17.7652 20 18.0196 19.8946 18.2071 19.7071C18.3946 19.5196 18.5 19.2652 18.5 19V5C18.5 4.73478 18.3946 4.48043 18.2071 4.29289C18.0196 4.10536 17.7652 4 17.5 4H9.50001C9.23479 4 8.98044 3.89464 8.7929 3.70711C8.60536 3.51957 8.50001 3.26522 8.50001 3ZM10.793 7.293C10.9652 7.12082 11.1943 7.01739 11.4373 7.00211C11.6804 6.98683 11.9206 7.06075 12.113 7.21L12.207 7.293L16.207 11.293C16.3792 11.4652 16.4826 11.6943 16.4979 11.9373C16.5132 12.1803 16.4393 12.4206 16.29 12.613L16.207 12.707L12.207 16.707C12.027 16.8863 11.7856 16.9905 11.5316 16.9982C11.2777 17.006 11.0303 16.9168 10.8397 16.7488C10.6492 16.5807 10.5297 16.3464 10.5056 16.0935C10.4815 15.8406 10.5546 15.588 10.71 15.387L10.793 15.293L13.085 13H5.50001C5.24513 12.9997 4.99997 12.9021 4.81464 12.7272C4.6293 12.5522 4.51777 12.313 4.50283 12.0586C4.4879 11.8042 4.57068 11.5536 4.73427 11.3582C4.89786 11.1627 5.12991 11.0371 5.38301 11.007L5.50001 11H13.085L10.793 8.707C10.6208 8.53481 10.5174 8.30571 10.5021 8.06268C10.4868 7.81965 10.5608 7.5794 10.71 7.387L10.793 7.293Z" fill="#162136"/>
</svg>
