<svg width="169" height="33" viewBox="0 0 169 33" fill="none" xmlns="http://www.w3.org/2000/svg">
<g clip-path="url(#clip0_19_995)">
<mask id="mask0_19_995" style="mask-type:luminance" maskUnits="userSpaceOnUse" x="0" y="0" width="169" height="33">
<path d="M168.5 0.5H0.5V32.5H168.5V0.5Z" fill="white"/>
</mask>
<g mask="url(#mask0_19_995)">
<path d="M27.417 0.5H25.8204C23.7051 0.5 21.9899 2.2176 21.9899 4.33585V5.93473C21.9899 8.05298 23.7051 9.77058 25.8204 9.77058H27.417C29.5323 9.77058 31.2475 8.05298 31.2475 5.93473V4.33585C31.2475 2.2176 29.5323 0.5 27.417 0.5Z" fill="#96DCFF"/>
<path d="M16.6739 11.2582H15.0773C12.962 11.2582 11.2468 12.9758 11.2468 15.094V16.6929C11.2468 18.8112 12.962 20.5288 15.0773 20.5288H16.6739C18.7892 20.5288 20.5044 18.8112 20.5044 16.6929V15.094C20.5044 12.9758 18.7892 11.2582 16.6739 11.2582Z" fill="#96DCFF"/>
<path d="M27.417 11.2582H25.8204C23.7051 11.2582 21.9899 12.9758 21.9899 15.094V16.6929C21.9899 18.8112 23.7051 20.5288 25.8204 20.5288H27.417C29.5323 20.5288 31.2475 18.8112 31.2475 16.6929V15.094C31.2475 12.9758 29.5323 11.2582 27.417 11.2582Z" fill="#50C3FF"/>
<path d="M5.93091 22.0164H4.33426C2.21898 22.0164 0.503784 23.734 0.503784 25.8523V27.4512C0.503784 29.5694 2.21898 31.287 4.33426 31.287H5.93091C8.04619 31.287 9.76138 29.5694 9.76138 27.4512V25.8523C9.76138 23.734 8.04619 22.0164 5.93091 22.0164Z" fill="#96DCFF"/>
<path d="M16.6739 22.0164H15.0773C12.962 22.0164 11.2468 23.734 11.2468 25.8523V27.4512C11.2468 29.5694 12.962 31.287 15.0773 31.287H16.6739C18.7892 31.287 20.5044 29.5694 20.5044 27.4512V25.8523C20.5044 23.734 18.7892 22.0164 16.6739 22.0164Z" fill="#50C3FF"/>
<path d="M27.417 22.0164H25.8204C23.7051 22.0164 21.9899 23.734 21.9899 25.8523V27.4512C21.9899 29.5694 23.7051 31.287 25.8204 31.287H27.417C29.5323 31.287 31.2475 29.5694 31.2475 27.4512V25.8523C31.2475 23.734 29.5323 22.0164 27.417 22.0164Z" fill="#009BFF"/>
<path d="M72.579 21.9052V17.7762C72.579 13.4989 69.8006 11.6292 65.9886 11.6292C62.1767 11.6292 59.2797 14.0035 58.8648 17.3014H62.2359C62.6212 15.9659 63.5362 15.1943 65.5181 15.1943H66.3739C68.6485 15.1943 69.3894 15.9956 69.3894 17.0045C69.3894 17.7761 68.9189 17.984 67.7038 17.984H64.718C60.906 17.984 58.7166 19.9464 58.7166 22.5544C58.7166 25.1623 61.169 27.2731 64.2734 27.2731C67.3778 27.2731 68.7633 25.997 69.4486 24.2163H69.5375C69.7154 26.0266 70.6637 26.8613 72.4048 26.8613H74.5312V23.2963H73.6755C72.9087 23.2963 72.579 22.8511 72.579 21.9014V21.9052ZM69.3597 21.1372C69.3597 22.6508 67.5853 23.7228 65.2514 23.7228H64.066C62.736 23.7228 61.9099 23.1887 61.9099 22.15C61.9099 21.1113 62.736 20.7848 64.066 20.7848H67.5853C68.6522 20.7848 69.0041 20.6068 69.3597 20.3953V21.1372Z" fill="black"/>
<path d="M164.51 12.0187L160.135 21.5192L155.76 12.0187H151.741L158.242 25.4998L157.475 26.8056C156.557 28.3488 155.701 28.5862 154.46 28.5862H152.952V32.5037H154.49C156.823 32.5037 159.068 31.554 160.783 28.0483L168.5 12.015H164.51V12.0187Z" fill="black"/>
<path d="M49.6405 12.193C46.7435 12.193 45.0617 13.8847 44.3467 15.4872H44.2282C44.6394 11.3287 46.1804 10.0562 49.4034 9.93381L52.267 9.8151C53.8636 9.75575 54.8675 9.548 55.7863 9.13252V5.27441C54.8713 5.63055 53.8636 5.80861 52.2373 5.89764L49.3997 6.04603C43.1946 6.37249 41.183 11.0059 41.183 18.0395C41.183 25.0731 45.0839 27.2767 49.1922 27.2767C53.5376 27.2767 56.6124 23.9194 56.6124 19.7052C56.6124 15.491 53.9229 12.193 49.6368 12.193H49.6405ZM49.5812 23.3593H48.5143C45.7063 23.3593 44.7023 21.727 44.7023 19.7349C44.7023 17.7428 45.71 16.1105 48.5143 16.1105H49.5812C52.3892 16.1105 53.3931 17.7724 53.3931 19.7349C53.3931 21.6973 52.3855 23.3593 49.5812 23.3593Z" fill="black"/>
<path d="M131.847 21.5192H130.873C129.573 21.5192 128.569 22.5283 128.569 23.8935V24.7541C128.569 26.1193 129.577 27.1283 130.873 27.1283H131.847C133.148 27.1283 134.152 26.1193 134.152 24.7541V23.8935C134.152 22.5283 133.144 21.5192 131.847 21.5192Z" fill="black"/>
<path d="M114.733 21.5192V12.0187H111.421V26.8649H114.733L122.831 17.3607V26.8649H126.143V12.0187H122.831L114.733 21.5192Z" fill="black"/>
<path d="M145.117 11.6291C142.309 11.6291 140.801 13.0537 140.031 14.7156H139.883V12.0112H136.571V32.5H139.883V24.3052H140.031C140.798 25.9078 142.305 27.273 145.117 27.273C149.107 27.273 151.919 23.7673 151.919 19.4344C151.919 15.1014 149.111 11.6254 145.117 11.6254V11.6291ZM144.676 23.3333H143.698C140.89 23.3333 139.886 21.5823 139.886 19.4752C139.886 17.3681 140.894 15.5874 143.698 15.5874H144.676C147.484 15.5874 148.488 17.3681 148.488 19.4752C148.488 21.5823 147.481 23.3333 144.676 23.3333Z" fill="black"/>
<path d="M87.9489 17.509H80.2361V12.0187H76.9243V26.8649H80.2361V21.1891H87.9489V26.8649H91.2607V12.0187H87.9489V17.509Z" fill="black"/>
<path d="M105.749 12.0187L101.785 17.509H98.0622V12.0187H94.7504V26.8649H98.0622V21.1891H101.819L105.749 26.8649H109.739L104.534 19.3194L109.739 12.0187H105.749Z" fill="black"/>
</g>
</g>
<defs>
<clipPath id="clip0_19_995">
<rect width="168" height="32" fill="white" transform="translate(0.5 0.5)"/>
</clipPath>
</defs>
</svg>
