<svg width="25" height="24" viewBox="0 0 25 24" fill="none" xmlns="http://www.w3.org/2000/svg">
<g clip-path="url(#clip0_20_1078)">
<path d="M20.288 19H20.176C18.965 18.797 18.141 17.926 17.437 17.117C17.04 16.662 16.43 15.631 15.704 15.748C14.673 15.92 15.183 17.717 14.754 18.486C14.405 19.109 12.923 18.996 11.901 18.884C8.67499 18.536 7.02699 16.78 5.58199 14.894C4.03799 12.878 2.83599 10.769 1.72399 8.45303C1.36499 7.70303 0.885986 6.87303 0.885986 5.94503C1.40799 5.50903 2.26099 5.65903 3.12199 5.65903C3.85199 5.65903 4.99199 5.49603 5.52599 5.77303C5.84299 5.93703 6.16399 6.81103 6.42099 7.37003C7.00899 8.65003 7.55099 9.57003 8.26599 10.619C8.57599 11.074 9.05099 11.93 9.60799 11.816C10.149 11.705 10.2 10.347 10.224 9.47803C10.25 8.49203 10.222 7.26603 9.94399 6.74103C9.68099 6.24703 9.19999 6.23803 8.71399 5.94403C9.11899 5.11303 10.229 5.03103 11.566 5.03103C12.691 5.03103 14.259 4.90303 14.698 5.65803C15.144 6.42603 14.839 7.81203 14.81 8.85103C14.778 10.019 14.58 11.222 15.369 11.757C15.976 11.691 16.304 11.089 16.655 10.618C17.426 9.58703 17.904 8.69603 18.501 7.36803C18.746 6.82303 19.009 5.88603 19.452 5.71503C20.127 5.45403 21.203 5.65703 22.191 5.65703C23.001 5.65703 24.448 5.42903 24.708 5.99903C24.924 6.47203 24.288 7.66703 24.093 7.99403C23.344 9.24603 22.61 10.043 21.8 11.131C21.478 11.565 20.811 12.26 20.85 12.953C20.88 13.482 21.399 13.887 21.8 14.265C22.669 15.087 23.278 15.687 23.982 16.603C24.247 16.949 24.819 17.695 24.764 18.142C24.592 19.537 21.373 18.664 20.288 19Z" fill="#687082"/>
</g>
<defs>
<clipPath id="clip0_20_1078">
<rect width="24" height="24" fill="white" transform="translate(0.765991)"/>
</clipPath>
</defs>
</svg>
