<svg width="25" height="24" viewBox="0 0 25 24" fill="none" xmlns="http://www.w3.org/2000/svg">
<path d="M12.62 12.14C14.2149 12.14 15.7444 11.5065 16.8722 10.3787C17.9999 9.25097 18.6335 7.72142 18.6335 6.12654C18.6335 4.53166 17.9999 3.0021 16.8722 1.87435C15.7444 0.7466 14.2149 0.113037 12.62 0.113037C11.0251 0.113037 9.49556 0.7466 8.36781 1.87435C7.24006 3.0021 6.60649 4.53166 6.60649 6.12654C6.60649 7.72142 7.24006 9.25097 8.36781 10.3787C9.49556 11.5065 11.0251 12.14 12.62 12.14ZM12.62 3.16904C13.4043 3.16983 14.1563 3.4819 14.7107 4.03671C15.2652 4.59151 15.5767 5.34369 15.577 6.12804C15.5771 6.51639 15.5007 6.90097 15.3522 7.25979C15.2036 7.61861 14.9858 7.94464 14.7112 8.21924C14.4366 8.49385 14.1106 8.71166 13.7517 8.86022C13.3929 9.00877 13.0083 9.08517 12.62 9.08504C11.8355 9.08504 11.0831 8.77339 10.5284 8.21866C9.97364 7.66393 9.66199 6.91155 9.66199 6.12704C9.66199 5.34253 9.97364 4.59015 10.5284 4.03542C11.0831 3.48068 11.8355 3.16904 12.62 3.16904ZM19.552 12.874C19.212 12.191 18.272 11.628 17.021 12.608C15.333 13.943 12.621 13.943 12.621 13.943C12.621 13.943 9.90799 13.943 8.21699 12.608C6.96899 11.628 6.02899 12.191 5.69099 12.874C5.09899 14.064 5.76599 14.641 7.27599 15.606C8.56499 16.434 10.337 16.747 11.48 16.859L10.523 17.815C9.17799 19.161 7.87899 20.456 6.97999 21.359C6.85188 21.4869 6.75025 21.6388 6.6809 21.806C6.61156 21.9733 6.57587 22.1525 6.57587 22.3335C6.57587 22.5146 6.61156 22.6938 6.6809 22.861C6.75025 23.0282 6.85188 23.1801 6.97999 23.308L7.14399 23.469C7.27171 23.5977 7.4236 23.6997 7.59094 23.7694C7.75827 23.8391 7.93774 23.8749 8.11899 23.8749C8.30025 23.8749 8.47971 23.8391 8.64705 23.7694C8.81438 23.6997 8.96628 23.5977 9.09399 23.469L12.636 19.927C13.981 21.271 15.277 22.571 16.18 23.469C16.3076 23.5976 16.4594 23.6997 16.6267 23.7693C16.7939 23.839 16.9733 23.8748 17.1545 23.8748C17.3357 23.8748 17.515 23.839 17.6823 23.7693C17.8496 23.6997 18.0014 23.5976 18.129 23.469L18.292 23.308C18.5502 23.0495 18.6953 22.699 18.6953 22.3335C18.6953 21.9681 18.5502 21.6176 18.292 21.359L13.79 16.857C14.937 16.738 16.686 16.428 17.966 15.606C19.473 14.641 20.143 14.064 19.552 12.874Z" fill="#687082"/>
</svg>
